HIERARCHY
ROOT HMD
{
	OFFSET 0.0 0.0 0.0
	CHANNELS 6 Xposition Yposition Zposition Zrotation Xrotation Yrotation
	JOINT Head
	{
		OFFSET 0.0 0.0 10.0
		CHANNELS 3 Zrotation Xrotation Yrotation
		JOINT Neck
		{
			OFFSET 0.0 -10.0 0.0
			CHANNELS 3 Zrotation Xrotation Yrotation
			JOINT Chest
			{
				OFFSET 0.0 -32.0 0.0
				CHANNELS 3 Zrotation Xrotation Yrotation
				JOINT Waist
				{
					OFFSET 0.0 -20.000002 0.0
					CHANNELS 3 Zrotation Xrotation Yrotation
					JOINT Hip
					{
						OFFSET 0.0 -4.0 0.0
						CHANNELS 3 Zrotation Xrotation Yrotation
						JOINT Left-Hip
						{
							OFFSET -13.0 0.0 0.0
							CHANNELS 3 Zrotation Xrotation Yrotation
							JOINT Left-Knee
							{
								OFFSET 0.0 -42.0 0.0
								CHANNELS 3 Zrotation Xrotation Yrotation
								JOINT Left-Ankle
								{
									OFFSET 0.0 -50.0 5.0
									CHANNELS 3 Zrotation Xrotation Yrotation
									JOINT Left-Foot
									{
										OFFSET 0.0 0.0 -5.0
										CHANNELS 3 Zrotation Xrotation Yrotation
										End Site
										{
											OFFSET 0.0 0.0 -0.0
										}
									}
								}
							}
						}
						JOINT Right-Hip
						{
							OFFSET 13.0 0.0 0.0
							CHANNELS 3 Zrotation Xrotation Yrotation
							JOINT Right-Knee
							{
								OFFSET 0.0 -42.0 0.0
								CHANNELS 3 Zrotation Xrotation Yrotation
								JOINT Right-Ankle
								{
									OFFSET 0.0 -50.0 5.0
									CHANNELS 3 Zrotation Xrotation Yrotation
									JOINT Right-Foot
									{
										OFFSET 0.0 0.0 -5.0
										CHANNELS 3 Zrotation Xrotation Yrotation
										End Site
										{
											OFFSET 0.0 0.0 -0.0
										}
									}
								}
							}
						}
					}
				}
			}
		}
	}
}
MOTION
Frames: 16                
Frame Time: 0.01
0.0 180.0 0.0 -0.0 0.0 -0.0 -0.0 0.0 -0.0 -90.10487 0.0073970943 -90.44061 0.0 -1.7075472E-6 0.0 0.0 -1.7075472E-6 0.0 95.65566 57.31643 -81.00127 56.500027 -12.956252 -91.82974 1.06721714E-7 -5.065946E-6 4.7180303E-15 1.06721714E-7 -5.065946E-6 4.7180303E-15 1.06721714E-7 -5.065946E-6 4.7180303E-15 -32.768337 5.0480733 76.794304 -0.0 0.0 -0.0 -0.0 0.0 -0.0 -0.0 0.0 -0.0
0.0 180.0 0.0 -0.0 0.0 -0.0 -0.0 0.0 -0.0 -90.10487 0.0073970943 -90.44061 0.0 -1.7075472E-6 0.0 0.0 -1.7075472E-6 0.0 95.65566 57.31643 -81.00127 56.500027 -12.956252 -91.82974 1.06721714E-7 -5.065946E-6 4.7180303E-15 1.06721714E-7 -5.065946E-6 4.7180303E-15 1.06721714E-7 -5.065946E-6 4.7180303E-15 -32.768337 5.0480733 76.794304 -0.0 0.0 -0.0 -0.0 0.0 -0.0 -0.0 0.0 -0.0
0.0 180.0 0.0 -0.0 0.0 -0.0 -0.0 0.0 -0.0 -90.10487 0.0073970943 -90.44061 0.0 -1.7075472E-6 0.0 0.0 -1.7075472E-6 0.0 95.65566 57.31643 -81.00127 56.500027 -12.956252 -91.82974 1.06721714E-7 -5.065946E-6 4.7180303E-15 1.06721714E-7 -5.065946E-6 4.7180303E-15 1.06721714E-7 -5.065946E-6 4.7180303E-15 -32.768337 5.0480733 76.794304 -0.0 0.0 -0.0 -0.0 0.0 -0.0 -0.0 0.0 -0.0
0.0 180.0 0.0 -0.0 0.0 -0.0 -0.0 0.0 -0.0 -90.10487 0.0073970943 -90.44061 0.0 -1.7075472E-6 0.0 0.0 -1.7075472E-6 0.0 95.65566 57.31643 -81.00127 56.500027 -12.956252 -91.82974 1.06721714E-7 -5.065946E-6 4.7180303E-15 1.06721714E-7 -5.065946E-6 4.7180303E-15 1.06721714E-7 -5.065946E-6 4.7180303E-15 -32.768337 5.0480733 76.794304 -0.0 0.0 -0.0 -0.0 0.0 -0.0 -0.0 0.0 -0.0
0.0 180.0 0.0 -0.0 0.0 -0.0 -0.0 0.0 -0.0 -90.10487 0.0073970943 -90.44061 0.0 -1.7075472E-6 0.0 0.0 -1.7075472E-6 0.0 95.65566 57.31643 -81.00127 56.500027 -12.956252 -91.82974 1.06721714E-7 -5.065946E-6 4.7180303E-15 1.06721714E-7 -5.065946E-6 4.7180303E-15 1.06721714E-7 -5.065946E-6 4.7180303E-15 -32.768337 5.0480733 76.794304 -0.0 0.0 -0.0 -0.0 0.0 -0.0 -0.0 0.0 -0.0
0.0 180.0 0.0 -0.0 0.0 -0.0 -0.0 0.0 -0.0 -90.10487 0.0073970943 -90.44061 0.0 -1.7075472E-6 0.0 0.0 -1.7075472E-6 0.0 95.65566 57.31643 -81.00127 56.500027 -12.956252 -91.82974 1.06721714E-7 -5.065946E-6 4.7180303E-15 1.06721714E-7 -5.065946E-6 4.7180303E-15 1.06721714E-7 -5.065946E-6 4.7180303E-15 -32.768337 5.0480733 76.794304 -0.0 0.0 -0.0 -0.0 0.0 -0.0 -0.0 0.0 -0.0
0.0 180.0 0.0 -0.0 0.0 -0.0 -0.0 0.0 -0.0 -90.10487 0.0073970943 -90.44061 0.0 -1.7075472E-6 0.0 0.0 -1.7075472E-6 0.0 95.65566 57.31643 -81.00127 56.500027 -12.956252 -91.82974 1.06721714E-7 -5.065946E-6 4.7180303E-15 1.06721714E-7 -5.065946E-6 4.7180303E-15 1.06721714E-7 -5.065946E-6 4.7180303E-15 -32.768337 5.0480733 76.794304 -0.0 0.0 -0.0 -0.0 0.0 -0.0 -0.0 0.0 -0.0
0.0 180.0 0.0 -0.0 0.0 -0.0 -0.0 0.0 -0.0 -90.10487 0.0073970943 -90.44061 0.0 -1.7075472E-6 0.0 0.0 -1.7075472E-6 0.0 95.65566 57.31643 -81.00127 56.500027 -12.956252 -91.82974 1.06721714E-7 -5.065946E-6 4.7180303E-15 1.06721714E-7 -5.065946E-6 4.7180303E-15 1.06721714E-7 -5.065946E-6 4.7180303E-15 -32.768337 5.0480733 76.794304 -0.0 0.0 -0.0 -0.0 0.0 -0.0 -0.0 0.0 -0.0
0.0 180.0 0.0 -0.0 0.0 -0.0 -0.0 0.0 -0.0 -90.10487 0.0073970943 -90.44061 0.0 -1.7075472E-6 0.0 0.0 -1.7075472E-6 0.0 95.65566 57.31643 -81.00127 56.500027 -12.956252 -91.82974 1.06721714E-7 -5.065946E-6 4.7180303E-15 1.06721714E-7 -5.065946E-6 4.7180303E-15 1.06721714E-7 -5.065946E-6 4.7180303E-15 -32.768337 5.0480733 76.794304 -0.0 0.0 -0.0 -0.0 0.0 -0.0 -0.0 0.0 -0.0
0.0 180.0 0.0 -0.0 0.0 -0.0 -0.0 0.0 -0.0 -90.10487 0.0073970943 -90.44061 0.0 -1.7075472E-6 0.0 0.0 -1.7075472E-6 0.0 95.65566 57.31643 -81.00127 56.500027 -12.956252 -91.82974 1.06721714E-7 -5.065946E-6 4.7180303E-15 1.06721714E-7 -5.065946E-6 4.7180303E-15 1.06721714E-7 -5.065946E-6 4.7180303E-15 -32.768337 5.0480733 76.794304 -0.0 0.0 -0.0 -0.0 0.0 -0.0 -0.0 0.0 -0.0
0.0 180.0 0.0 -0.0 0.0 -0.0 -0.0 0.0 -0.0 -90.10487 0.0073970943 -90.44061 0.0 -1.7075472E-6 0.0 0.0 -1.7075472E-6 0.0 95.65566 57.31643 -81.00127 56.500027 -12.956252 -91.82974 1.06721714E-7 -5.065946E-6 4.7180303E-15 1.06721714E-7 -5.065946E-6 4.7180303E-15 1.06721714E-7 -5.065946E-6 4.7180303E-15 -32.768337 5.0480733 76.794304 -0.0 0.0 -0.0 -0.0 0.0 -0.0 -0.0 0.0 -0.0
0.0 180.0 0.0 -0.0 0.0 -0.0 -0.0 0.0 -0.0 -90.10487 0.0073970943 -90.44061 0.0 -1.7075472E-6 0.0 0.0 -1.7075472E-6 0.0 95.65566 57.31643 -81.00127 56.500027 -12.956252 -91.82974 1.06721714E-7 -5.065946E-6 4.7180303E-15 1.06721714E-7 -5.065946E-6 4.7180303E-15 1.06721714E-7 -5.065946E-6 4.7180303E-15 -32.768337 5.0480733 76.794304 -0.0 0.0 -0.0 -0.0 0.0 -0.0 -0.0 0.0 -0.0
0.0 180.0 0.0 -0.0 0.0 -0.0 -0.0 0.0 -0.0 -90.10487 0.0073970943 -90.44061 0.0 -1.7075472E-6 0.0 0.0 -1.7075472E-6 0.0 95.647545 57.318874 -80.99076 56.49589 -12.950532 -91.82418 1.067217E-7 3.4984707E-6 -3.2582048E-15 1.067217E-7 3.4984707E-6 -3.2582048E-15 1.067217E-7 3.4984707E-6 -3.2582048E-15 -32.76518 5.0533695 76.79334 -0.0 0.0 -0.0 -0.0 0.0 -0.0 -0.0 0.0 -0.0
0.0 180.0 0.0 -0.0 0.0 -0.0 -0.0 0.0 -0.0 -90.10487 0.0073970943 -90.44061 0.0 -1.7075472E-6 0.0 0.0 -1.7075472E-6 0.0 95.6465 57.319176 -80.98941 56.49535 -12.949801 -91.82347 1.06721714E-7 3.9820534E-6 -2.134434E-7 1.06721714E-7 3.9820534E-6 -2.134434E-7 1.06721714E-7 3.9820534E-6 -2.134434E-7 -32.76477 5.054053 76.79322 -0.0 0.0 -0.0 -0.0 0.0 -0.0 -0.0 0.0 -0.0
0.0 180.0 0.0 -0.0 0.0 -0.0 -0.0 0.0 -0.0 -90.10487 0.0073970943 -90.44061 0.0 -1.7075472E-6 0.0 0.0 -1.7075472E-6 0.0 95.6465 57.319176 -80.98941 56.49535 -12.949801 -91.82347 1.06721714E-7 3.9820534E-6 -2.134434E-7 1.06721714E-7 3.9820534E-6 -2.134434E-7 1.06721714E-7 3.9820534E-6 -2.134434E-7 -32.76477 5.054053 76.79322 -0.0 0.0 -0.0 -0.0 0.0 -0.0 -0.0 0.0 -0.0
0.0 180.0 0.0 -0.0 0.0 -0.0 -0.0 0.0 -0.0 -90.10487 0.0073970943 -90.44061 0.0 -1.7075472E-6 0.0 0.0 -1.7075472E-6 0.0 95.6465 57.319176 -80.98941 56.49535 -12.949801 -91.82347 1.06721714E-7 3.9820534E-6 -2.134434E-7 1.06721714E-7 3.9820534E-6 -2.134434E-7 1.06721714E-7 3.9820534E-6 -2.134434E-7 -32.76477 5.054053 76.79322 -0.0 0.0 -0.0 -0.0 0.0 -0.0 -0.0 0.0 -0.0
